<svg xmlns="http://www.w3.org/2000/svg" width="48" height="48" viewBox="0 0 48 48" role="img" aria-label="Google logo">
  <defs>
    <linearGradient id="g1" x1="0" x2="1" y1="0" y2="0">
      <stop offset="0" stop-color="#4285F4" />
      <stop offset="1" stop-color="#34A853" />
    </linearGradient>
  </defs>
  <rect width="48" height="48" rx="6" fill="#fff" />
  <g transform="translate(6,6) scale(0.75)">
    <path d="M20.66 9.2c0-.64-.06-1.26-.16-1.86H12v3.52h4.78c-.2 1.1-.81 2.03-1.72 2.64v2.2h2.78c1.63-1.5 2.58-3.72 2.58-6.5z" fill="#4285F4"/>
    <path d="M12 24c2.43 0 4.47-.8 5.96-2.17l-2.78-2.2c-.77.52-1.77.82-3.18.82-2.45 0-4.53-1.65-5.27-3.87H3.63v2.44C5.12 22.92 8.33 24 12 24z" fill="#34A853"/>
    <path d="M6.73 14.78a7.2 7.2 0 010-4.56v-2.44H3.63A11.88 11.88 0 0012 12.5c1.41 0 2.41-.3 3.18-.82l2.78 2.2C16.47 17.2 14.43 18 12 18c-3.67 0-6.88-1.08-8.37-3.22l2.3-0z" fill="#FBBC05"/>
    <path d="M12 6c1.62 0 3.08.56 4.22 1.66l3.15-3.15C17.32 2.06 14.8 1 12 1 8.33 1 5.12 2.08 3.63 4.36L6.73 6C7.47 4.1 9.55 3 12 3z" fill="#EA4335"/>
  </g>
</svg>